<svg xmlns="http://www.w3.org/2000/svg" viewBox="0 0 800 450" preserveAspectRatio="xMidYMid slice"><defs><linearGradient id="sky" x1="0" y1="0" x2="0" y2="1"><stop offset="0" stop-color="#05060f"/><stop offset="1" stop-color="#0a1030"/></linearGradient><filter id="glow" x="-50%" y="-50%" width="200%" height="200%"><feGaussianBlur stdDeviation="4" result="b"/><feMerge><feMergeNode in="b"/><feMergeNode in="b"/><feMergeNode in="SourceGraphic"/></feMerge></filter><linearGradient id="street" x1="0" y1="0" x2="0" y2="1"><stop offset="0" stop-color="#0d0b22"/><stop offset="1" stop-color="#05060f"/></linearGradient></defs><rect width="800" height="450" fill="url(#sky)"/><circle cx="545.6" cy="11" r="1.6" fill="#fff4e4" opacity="0.75"/><circle cx="597.4" cy="76.1" r="0.6" fill="#fff4e4" opacity="0.73"/><circle cx="295.4" cy="63.4" r="0.6" fill="#fff4e4" opacity="0.94"/><circle cx="365.5" cy="95.5" r="1.2" fill="#fff4e4" opacity="0.93"/><circle cx="338.6" cy="17.3" r="0.6" fill="#fff4e4" opacity="0.40"/><circle cx="60.1" cy="34.6" r="1" fill="#fff4e4" opacity="0.74"/><circle cx="345.9" cy="70.5" r="1" fill="#fff4e4" opacity="0.73"/><circle cx="458.5" cy="4.1" r="1.6" fill="#fff4e4" opacity="0.72"/><circle cx="404.2" cy="7.6" r="0.6" fill="#fff4e4" opacity="0.74"/><circle cx="728.2" cy="8.2" r="1.6" fill="#fff4e4" opacity="0.48"/><circle cx="259.1" cy="63.3" r="0.6" fill="#fff4e4" opacity="0.79"/><circle cx="717.2" cy="26.2" r="1" fill="#fff4e4" opacity="0.77"/><circle cx="408.5" cy="109.9" r="1.6" fill="#fff4e4" opacity="0.38"/><circle cx="218.1" cy="24.4" r="0.8" fill="#fff4e4" opacity="0.48"/><circle cx="494.2" cy="5.8" r="1.2" fill="#fff4e4" opacity="0.41"/><circle cx="519" cy="32" r="0.8" fill="#fff4e4" opacity="0.40"/><circle cx="519.8" cy="40.9" r="0.6" fill="#fff4e4" opacity="0.41"/><circle cx="119.5" cy="69.3" r="1.6" fill="#fff4e4" opacity="0.74"/><circle cx="654.1" cy="34.6" r="0.6" fill="#fff4e4" opacity="0.70"/><circle cx="434.9" cy="35.3" r="0.8" fill="#fff4e4" opacity="0.42"/><circle cx="132.7" cy="69.6" r="1.6" fill="#fff4e4" opacity="0.90"/><circle cx="6.8" cy="33.3" r="1.6" fill="#fff4e4" opacity="0.85"/><circle cx="179.4" cy="20.6" r="1.2" fill="#fff4e4" opacity="0.54"/><circle cx="155.5" cy="116" r="0.6" fill="#fff4e4" opacity="0.48"/><g fill="#0b0a1e"><rect x="0" y="253.5" width="27.6" height="78.5"/><rect x="25.6" y="201.2" width="31.9" height="130.8"/><rect x="57.3" y="280.7" width="28.7" height="51.3"/><rect x="88.1" y="205.6" width="48.2" height="126.4"/><rect x="138.3" y="277.2" width="44" height="54.8"/><rect x="182.9" y="267.2" width="30.4" height="64.8"/><rect x="213.3" y="157.2" width="46.3" height="174.8"/><rect x="235.2" y="137.4" width="2" height="19.8"/><rect x="260.7" y="269" width="22.8" height="63"/><rect x="281.4" y="226.1" width="38.1" height="105.9"/><rect x="318.6" y="270.1" width="48.6" height="61.9"/><rect x="365.9" y="262.4" width="23.8" height="69.6"/><rect x="389.2" y="279" width="49.3" height="53"/><rect x="438" y="270.8" width="41" height="61.2"/><rect x="478.8" y="203.4" width="35.1" height="128.6"/><rect x="511.5" y="266.4" width="23.6" height="65.6"/><rect x="533.2" y="277" width="46.7" height="55"/><rect x="581" y="210.7" width="41.1" height="121.3"/><rect x="624.3" y="253.7" width="36.7" height="78.3"/><rect x="660.2" y="266.9" width="42.8" height="65.1"/><rect x="704.2" y="201.8" width="20.9" height="130.2"/><rect x="713.3" y="182" width="2" height="19.8"/><rect x="727.4" y="208.6" width="34.7" height="123.4"/><rect x="759.9" y="260.2" width="36.4" height="71.8"/><rect x="794.5" y="206.2" width="33.5" height="125.8"/></g><g fill="#ffc24b"><rect x="46" y="281" width="2.9" height="3.7" opacity="0.51"/><rect x="38" y="308" width="2.9" height="3.7" opacity="0.61"/><rect x="62" y="297" width="2.9" height="3.7" opacity="0.59"/><rect x="70" y="306" width="2.9" height="3.7" opacity="0.54"/><rect x="62" y="315" width="2.9" height="3.7" opacity="0.83"/><rect x="93" y="213" width="2.9" height="3.7" opacity="0.47"/><rect x="109" y="213" width="2.9" height="3.7" opacity="0.80"/><rect x="125" y="249" width="2.9" height="3.7" opacity="0.68"/><rect x="109" y="285" width="2.9" height="3.7" opacity="0.62"/><rect x="93" y="294" width="2.9" height="3.7" opacity="0.77"/><rect x="109" y="303" width="2.9" height="3.7" opacity="0.75"/><rect x="175" y="312" width="2.9" height="3.7" opacity="0.58"/><rect x="151" y="321" width="2.9" height="3.7" opacity="0.53"/><rect x="175" y="321" width="2.9" height="3.7" opacity="0.54"/><rect x="187" y="302" width="2.9" height="3.7" opacity="0.93"/><rect x="195" y="311" width="2.9" height="3.7" opacity="0.94"/><rect x="203" y="311" width="2.9" height="3.7" opacity="0.57"/><rect x="242" y="165" width="2.9" height="3.7" opacity="0.79"/><rect x="234" y="210" width="2.9" height="3.7" opacity="0.63"/><rect x="226" y="219" width="2.9" height="3.7" opacity="0.91"/><rect x="242" y="219" width="2.9" height="3.7" opacity="0.93"/><rect x="226" y="237" width="2.9" height="3.7" opacity="0.98"/><rect x="234" y="318" width="2.9" height="3.7" opacity="0.62"/><rect x="265" y="277" width="2.9" height="3.7" opacity="0.72"/><rect x="273" y="295" width="2.9" height="3.7" opacity="0.51"/><rect x="265" y="322" width="2.9" height="3.7" opacity="0.86"/><rect x="273" y="322" width="2.9" height="3.7" opacity="0.99"/><rect x="310" y="234" width="2.9" height="3.7" opacity="0.65"/><rect x="286" y="243" width="2.9" height="3.7" opacity="0.73"/><rect x="286" y="288" width="2.9" height="3.7" opacity="0.99"/><rect x="302" y="297" width="2.9" height="3.7" opacity="0.57"/><rect x="302" y="306" width="2.9" height="3.7" opacity="0.77"/><rect x="310" y="306" width="2.9" height="3.7" opacity="0.49"/><rect x="294" y="315" width="2.9" height="3.7" opacity="0.68"/><rect x="302" y="315" width="2.9" height="3.7" opacity="0.69"/><rect x="347" y="287" width="2.9" height="3.7" opacity="0.79"/><rect x="331" y="296" width="2.9" height="3.7" opacity="0.55"/><rect x="370" y="315" width="2.9" height="3.7" opacity="0.98"/><rect x="402" y="286" width="2.9" height="3.7" opacity="0.61"/><rect x="410" y="295" width="2.9" height="3.7" opacity="0.65"/><rect x="426" y="295" width="2.9" height="3.7" opacity="0.57"/><rect x="426" y="304" width="2.9" height="3.7" opacity="0.70"/><rect x="426" y="313" width="2.9" height="3.7" opacity="0.64"/><rect x="442" y="296" width="2.9" height="3.7" opacity="0.99"/><rect x="458" y="296" width="2.9" height="3.7" opacity="0.72"/><rect x="442" y="314" width="2.9" height="3.7" opacity="0.68"/><rect x="450" y="314" width="2.9" height="3.7" opacity="0.74"/><rect x="458" y="314" width="2.9" height="3.7" opacity="0.68"/><rect x="466" y="314" width="2.9" height="3.7" opacity="0.54"/><rect x="483" y="220" width="2.9" height="3.7" opacity="0.97"/><rect x="491" y="238" width="2.9" height="3.7" opacity="0.59"/><rect x="499" y="265" width="2.9" height="3.7" opacity="0.85"/><rect x="491" y="274" width="2.9" height="3.7" opacity="0.78"/><rect x="507" y="310" width="2.9" height="3.7" opacity="0.92"/><rect x="516" y="310" width="2.9" height="3.7" opacity="0.69"/><rect x="538" y="285" width="2.9" height="3.7" opacity="0.57"/><rect x="554" y="285" width="2.9" height="3.7" opacity="0.83"/><rect x="570" y="285" width="2.9" height="3.7" opacity="0.49"/><rect x="538" y="303" width="2.9" height="3.7" opacity="0.70"/><rect x="554" y="303" width="2.9" height="3.7" opacity="0.99"/><rect x="562" y="303" width="2.9" height="3.7" opacity="0.86"/><rect x="538" y="312" width="2.9" height="3.7" opacity="0.96"/><rect x="570" y="312" width="2.9" height="3.7" opacity="0.81"/><rect x="562" y="321" width="2.9" height="3.7" opacity="0.58"/><rect x="594" y="218" width="2.9" height="3.7" opacity="0.93"/><rect x="602" y="236" width="2.9" height="3.7" opacity="0.97"/><rect x="610" y="245" width="2.9" height="3.7" opacity="0.59"/><rect x="602" y="254" width="2.9" height="3.7" opacity="0.64"/><rect x="594" y="281" width="2.9" height="3.7" opacity="0.65"/><rect x="586" y="299" width="2.9" height="3.7" opacity="0.67"/><rect x="586" y="308" width="2.9" height="3.7" opacity="0.87"/><rect x="637" y="270" width="2.9" height="3.7" opacity="0.55"/><rect x="645" y="297" width="2.9" height="3.7" opacity="0.61"/><rect x="653" y="297" width="2.9" height="3.7" opacity="0.57"/><rect x="653" y="306" width="2.9" height="3.7" opacity="0.97"/><rect x="645" y="315" width="2.9" height="3.7" opacity="0.89"/><rect x="689" y="283" width="2.9" height="3.7" opacity="0.77"/><rect x="681" y="301" width="2.9" height="3.7" opacity="0.62"/><rect x="689" y="310" width="2.9" height="3.7" opacity="0.88"/><rect x="709" y="209" width="2.9" height="3.7" opacity="0.52"/><rect x="717" y="209" width="2.9" height="3.7" opacity="0.75"/><rect x="717" y="263" width="2.9" height="3.7" opacity="0.51"/><rect x="709" y="272" width="2.9" height="3.7" opacity="0.51"/><rect x="717" y="308" width="2.9" height="3.7" opacity="0.92"/><rect x="748" y="216" width="2.9" height="3.7" opacity="0.86"/><rect x="748" y="243" width="2.9" height="3.7" opacity="0.75"/><rect x="740" y="279" width="2.9" height="3.7" opacity="0.98"/><rect x="740" y="297" width="2.9" height="3.7" opacity="1.00"/><rect x="748" y="297" width="2.9" height="3.7" opacity="0.45"/><rect x="788" y="268" width="2.9" height="3.7" opacity="0.78"/><rect x="780" y="277" width="2.9" height="3.7" opacity="0.63"/><rect x="772" y="295" width="2.9" height="3.7" opacity="0.81"/><rect x="788" y="304" width="2.9" height="3.7" opacity="0.81"/><rect x="799" y="232" width="2.9" height="3.7" opacity="0.88"/><rect x="799" y="277" width="2.9" height="3.7" opacity="0.95"/><rect x="807" y="295" width="2.9" height="3.7" opacity="0.75"/><rect x="799" y="313" width="2.9" height="3.7" opacity="0.96"/><rect x="799" y="322" width="2.9" height="3.7" opacity="0.53"/></g><rect y="328" width="800" height="122" fill="url(#street)"/><g filter="url(#glow)" fill="none" stroke-linecap="round" stroke-linejoin="round"><rect x="120" y="120" width="210" height="96" rx="14" stroke="#5ec8ff" stroke-width="4"/><path d="M150 190 L150 146 M150 146 L170 146 Q182 146 182 158 Q182 170 170 170 L150 170" stroke="#ff2e88" stroke-width="5"/><path d="M205 190 L205 146 L235 146 M205 168 L228 168 M205 190 L235 190" stroke="#ff2e88" stroke-width="5"/><path d="M258 190 L258 146 L292 190 L292 146" stroke="#ff2e88" stroke-width="5"/><path d="M520 300 L520 170 Q520 150 540 150" stroke="#ffc24b" stroke-width="4"/><path d="M540 150 Q575 120 610 132 M540 150 Q560 110 600 102 M540 150 Q520 112 488 112 M540 150 Q506 140 480 162 M540 150 Q588 150 612 178" stroke="#ff6b3d" stroke-width="4"/><path d="M640 230 l18 -36 l18 36 l-36 -22 h36 z" stroke="#ffc24b" stroke-width="3"/></g><g opacity=".35" filter="url(#glow)"><rect x="140" y="340" width="10" height="90" fill="#ff2e88"/><rect x="236" y="345" width="8" height="70" fill="#ff2e88"/><rect x="516" y="336" width="8" height="100" fill="#ffc24b"/><rect x="300" y="350" width="6" height="60" fill="#5ec8ff"/></g><rect x="0" y="419" width="77.9" height="1.4" fill="#fff4e4" opacity=".15"/><rect x="70" y="402.7" width="78.2" height="1.4" fill="#fff4e4" opacity=".15"/><rect x="140" y="419.3" width="44.9" height="1.4" fill="#fff4e4" opacity=".15"/><rect x="210" y="398.1" width="40.9" height="1.4" fill="#fff4e4" opacity=".15"/><rect x="280" y="398.8" width="27.9" height="1.4" fill="#fff4e4" opacity=".15"/><rect x="350" y="422" width="54.7" height="1.4" fill="#fff4e4" opacity=".15"/><rect x="420" y="431.1" width="24.5" height="1.4" fill="#fff4e4" opacity=".15"/><rect x="490" y="409.4" width="29.4" height="1.4" fill="#fff4e4" opacity=".15"/><rect x="560" y="418.4" width="23.1" height="1.4" fill="#fff4e4" opacity=".15"/><rect x="630" y="412.3" width="31.5" height="1.4" fill="#fff4e4" opacity=".15"/><rect x="700" y="432.9" width="54" height="1.4" fill="#fff4e4" opacity=".15"/><rect x="770" y="395.2" width="65.2" height="1.4" fill="#fff4e4" opacity=".15"/></svg>